<svg width="256" height="256" viewBox="0 0 256 256" fill="none" xmlns="http://www.w3.org/2000/svg" role="img" aria-labelledby="title desc">
  <title id="title">FNDF logo</title>
  <desc id="desc">A clean developer portfolio mark for Farnoush Daliran using the letters FNDF.</desc>
  <rect width="256" height="256" rx="56" fill="#0C0A09"/>
  <rect x="18" y="18" width="220" height="220" rx="44" stroke="#10B981" stroke-width="6"/>
  <path d="M74 86L42 128L74 170" stroke="#ECFDF5" stroke-width="15" stroke-linecap="round" stroke-linejoin="round"/>
  <path d="M182 86L214 128L182 170" stroke="#ECFDF5" stroke-width="15" stroke-linecap="round" stroke-linejoin="round"/>
  <path d="M144 72L112 184" stroke="#10B981" stroke-width="13" stroke-linecap="round"/>
  <path d="M80 70H134" stroke="#ECFDF5" stroke-width="13" stroke-linecap="round"/>
  <path d="M80 103H124" stroke="#ECFDF5" stroke-width="13" stroke-linecap="round"/>
  <path d="M80 70V128" stroke="#ECFDF5" stroke-width="13" stroke-linecap="round"/>
  <path d="M134 128V186" stroke="#ECFDF5" stroke-width="13" stroke-linecap="round"/>
  <path d="M134 128H158C174 128 184 139 184 157C184 175 174 186 158 186H134" stroke="#ECFDF5" stroke-width="13" stroke-linecap="round" stroke-linejoin="round"/>
  <circle cx="202" cy="54" r="9" fill="#10B981"/>
  <circle cx="54" cy="202" r="9" fill="#10B981"/>
</svg>